#!OML:ASF X:\für Bonn\!DataBase\2005_08_11_Bastian_Final\c3d\Bastian.ASF
:FULLY-SPECIFIED
:DEGREES
31
root -1.30003 17.7404 -6.50851 168.322 -9.7565 -174.373
lowerback 15.3859 -3.00389 1.47898
upperback 4.40961 -4.27222 2.4196
thorax -3.8341 -2.39284 2.50967
lowerneck 0.801843 -4.888 -6.61014
upperneck 0.486106 -6.57609 7.29374
head 0.518443 -3.28634 3.47646
rclavicle 6.21202e-017 2.08724e-015
rhumerus 252.121 170.264 154.618
rradius 45.2222
rwrist -56.4536
rhand -47.0276 -3.26336
rfingers 7.12502
rthumb -19.7338 -32.2817
lclavicle 6.21202e-017 2.08724e-015
lhumerus -281.748 -12.5744 351.558
lradius 40.7724
lwrist 34.2854
lhand -51.6995 17.8671
lfingers 7.12502
lthumb -24.2194 46.3577
rfemur -4.171 7.01058 29.7323
rtibia 27.4682
rfoot -5.72062 -8.87469
rtoes 3.55841
lfemur 9.45542 1.35762 -11.5967
ltibia 36.7663
lfoot -10.229 -8.58788
ltoes -27.2708
32
root -1.29315 17.7426 -6.56911 168.312 -9.61323 -174.556
lowerback 15.5637 -2.96272 1.39908
upperback 4.24611 -4.19962 2.30843
thorax -4.10808 -2.34318 2.44481
lowerneck 0.923684 -4.86829 -6.6262
upperneck 0.76731 -6.56447 7.28669
head 0.586608 -3.28107 3.47706
rclavicle -1.08586e-014 8.44835e-015
rhumerus 253.044 173.185 156.435
rradius 44.7311
rwrist -55.9617
rhand -47.057 -3.17949
rfingers 7.12502
rthumb -19.7621 -32.1949
lclavicle -1.08586e-014 8.44835e-015
lhumerus -283.047 -9.66263 349.244
lradius 40.5746
lwrist 34.8685
lhand -51.977 17.4197
lfingers 7.12502
lthumb -24.4855 45.8745
rfemur -3.94124 7.05835 29.6617
rtibia 27.5823
rfoot -5.98612 -8.79372
rtoes 3.66905
lfemur 9.29681 1.35519 -11.887
ltibia 36.0116
lfoot -10.6028 -8.37601
ltoes -27.2627
33
root -1.28699 17.7397 -6.62894 168.296 -9.44073 -174.678
lowerback 15.7614 -2.93237 1.37764
upperback 4.06986 -4.13252 2.22003
thorax -4.40821 -2.29689 2.37353
lowerneck 1.06101 -4.83048 -6.68319
upperneck 1.02229 -6.52832 7.30427
head 0.644372 -3.26371 3.49528
rclavicle 2.22639e-014 8.84592e-015
rhumerus 253.776 176.116 158.757
rradius 44.2356
rwrist -55.7144
rhand -47.2625 -3.24966
rfingers 7.12502
rthumb -19.9597 -32.2446
lclavicle 2.22639e-014 8.84592e-015
lhumerus -284.611 -6.9507 346.715
lradius 40.3301
lwrist 35.5813
lhand -52.3804 16.9465
lfingers 7.12502
lthumb -24.8721 45.3484
rfemur -3.75625 7.02465 29.649
rtibia 27.7486
rfoot -6.28141 -8.64181
rtoes 3.76823
lfemur 9.18242 1.36377 -12.0918
ltibia 35.1412
lfoot -10.8526 -8.15517
ltoes -27.3735
34
root -1.28169 17.7359 -6.69018 168.302 -9.26179 -174.816
lowerback 15.9206 -2.89509 1.33193
upperback 3.9008 -4.06242 2.14105
thorax -4.67804 -2.24959 2.32139
lowerneck 1.18321 -4.80646 -6.72178
upperneck 1.27777 -6.50934 7.26229
head 0.70322 -3.25491 3.48877
rclavicle -4.5385e-014 -3.27995e-015
rhumerus 254.09 179.11 161.705
rradius 43.8969
rwrist -55.8926
rhand -47.7113 -3.29398
rfingers 7.12502
rthumb -20.391 -32.2434
lclavicle -4.5385e-014 -3.27995e-015
lhumerus -286.465 -4.43269 343.947
lradius 40.0812
lwrist 36.4095
lhand -52.9675 16.7317
lfingers 7.12502
lthumb -25.4346 45.0548
rfemur -3.59883 7.0385 29.6181
rtibia 27.9415
rfoot -6.59485 -8.52426
rtoes 3.86611
lfemur 9.08062 1.33146 -12.3309
ltibia 34.1929
lfoot -10.9781 -7.87778
ltoes -27.2989
35
root -1.27717 17.7316 -6.7501 168.325 -9.09314 -174.967
lowerback 16.0741 -2.86609 1.27573
upperback 3.73183 -4.00616 2.05942
thorax -4.94411 -2.20908 2.27402
lowerneck 1.33453 -4.76625 -6.82796
upperneck 1.49527 -6.46938 7.30402
head 0.749146 -3.23592 3.52582
rclavicle 6.01324e-015 1.54058e-015
rhumerus 253.81 182.179 165.437
rradius 43.8667
rwrist -56.9164
rhand -48.4767 -3.17368
rfingers 7.12502
rthumb -21.1264 -32.0427
lclavicle 6.01324e-015 1.54058e-015
lhumerus -288.607 -2.1812 340.875
lradius 39.8255
lwrist 37.4602
lhand -53.7222 16.7684
lfingers 7.12502
lthumb -26.1574 44.9864
rfemur -3.45473 7.00517 29.5628
rtibia 28.1144
rfoot -6.86852 -8.37968
rtoes 3.8989
lfemur 8.96107 1.28517 -12.5876
ltibia 33.2363
lfoot -11.0088 -7.58934
ltoes -26.9011
36
root -1.27396 17.7313 -6.81122 168.35 -8.89858 -175.071
lowerback 16.2182 -2.84032 1.26731
upperback 3.54562 -3.94512 1.99566
thorax -5.22552 -2.16626 2.21735
lowerneck 1.58736 -4.71914 -6.91249
upperneck 1.64947 -6.42239 7.30956
head 0.753909 -3.21533 3.55006
rclavicle -5.24916e-015 -1.58531e-014
rhumerus 252.896 185.193 169.835
rradius 44.0465
rwrist -58.4424
rhand -49.4738 -3.13331
rfingers 7.12502
rthumb -22.084 -31.8922
lclavicle -5.24916e-015 -1.58531e-014
lhumerus -291.011 -0.293382 337.398
lradius 39.5138
lwrist 38.7169
lhand -54.6169 17.1139
lfingers 7.12502
lthumb -27.0137 45.2022
rfemur -3.29366 6.92881 29.5405
rtibia 28.2393
rfoot -7.14563 -8.15689
rtoes 3.98384
lfemur 8.82836 1.22973 -12.7884
ltibia 32.3176
lfoot -11.0488 -7.24813
ltoes -26.4544
37
root -1.27128 17.7341 -6.8737 168.4 -8.71039 -175.208
lowerback 16.3083 -2.80644 1.22411
upperback 3.37511 -3.88229 1.92038
thorax -5.46007 -2.12278 2.16267
lowerneck 1.84631 -4.6745 -6.99303
upperneck 1.7787 -6.37797 7.34487
head 0.750762 -3.19574 3.58428
rclavicle -2.48636e-014 1.90833e-014
rhumerus 251.379 188.104 174.7
rradius 44.3382
rwrist -60.2962
rhand -50.6359 -3.14789
rfingers 7.12502
rthumb -23.1993 -31.7707
lclavicle -2.48636e-014 1.90833e-014
lhumerus -293.679 1.23199 333.566
lradius 39.181
lwrist 40.2951
lhand -55.521 17.6265
lfingers 7.12502
lthumb -27.8784 45.5777
rfemur -3.11361 6.9043 29.4815
rtibia 28.3058
rfoot -7.40799 -7.98648
rtoes 4.14934
lfemur 8.65316 1.1535 -13.0406
ltibia 31.4701
lfoot -11.213 -6.78401
ltoes -26.6385
38
root -1.26921 17.7375 -6.93932 168.45 -8.52935 -175.308
lowerback 16.3285 -2.79098 1.19631
upperback 3.23475 -3.84675 1.85952
thorax -5.62416 -2.09508 2.11387
lowerneck 2.10628 -4.62239 -7.03711
upperneck 1.86029 -6.32168 7.33715
head 0.727998 -3.17056 3.59734
rclavicle -1.84155e-014 2.64384e-014
rhumerus 249.322 190.794 179.878
rradius 44.7046
rwrist -62.254
rhand -51.8348 -3.32428
rfingers 7.12502
rthumb -24.3491 -31.7975
lclavicle -1.84155e-014 2.64384e-014
lhumerus -296.733 2.19905 328.858
lradius 38.8818
lwrist 42.6395
lhand -56.5799 18.2112
lfingers 7.12502
lthumb -28.8903 45.9937
rfemur -2.90677 6.85535 29.4644
rtibia 28.319
rfoot -7.62196 -7.81615
rtoes 4.18047
lfemur 8.45425 1.08844 -13.2329
ltibia 30.6888
lfoot -11.4359 -6.38674
ltoes -27.0341
39
root -1.26759 17.7398 -7.00676 168.5 -8.33103 -175.415
lowerback 16.3021 -2.7616 1.17413
upperback 3.10077 -3.79344 1.79423
thorax -5.7573 -2.05909 2.05
lowerneck 2.46115 -4.56416 -7.12098
upperneck 1.88832 -6.26119 7.37802
head 0.674202 -3.14483 3.6383
rclavicle 7.5445e-015 -8.94531e-016
rhumerus 246.73 193.108 185.126
rradius 44.9592
rwrist -63.9778
rhand -52.8501 -3.68048
rfingers 7.12502
rthumb -25.3221 -32.0195
lclavicle 7.5445e-015 -8.94531e-016
lhumerus -300.21 2.34911 322.83
lradius 38.8365
lwrist 46.178
lhand -57.8321 18.8463
lfingers 7.12502
lthumb -30.0857 46.418
rfemur -2.66872 6.87 29.4463
rtibia 28.2959
rfoot -7.85459 -7.67991
rtoes 4.44752
lfemur 8.23941 1.02412 -13.4306
ltibia 29.9658
lfoot -11.7131 -6.0505
ltoes -27.3039
40
root -1.26734 17.7437 -7.0763 168.554 -8.16996 -175.515
lowerback 16.2236 -2.76073 1.1334
upperback 2.97728 -3.78273 1.75142
thorax -5.84734 -2.04459 2.02527
lowerneck 2.87971 -4.49097 -7.22105
upperneck 1.84722 -6.1834 7.38345
head 0.584558 -3.11235 3.67296
rclavicle 1.57972e-014 -2.65874e-014
rhumerus 243.709 194.981 190.397
rradius 45.1203
rwrist -65.3916
rhand -53.5852 -4.24428
rfingers 7.12502
rthumb -26.0262 -32.4817
lclavicle 1.57972e-014 -2.65874e-014
lhumerus -304.014 1.43263 315.989
lradius 38.9516
lwrist 50.4099
lhand -59.0964 19.5744
lfingers 7.12502
lthumb -31.2912 46.92
rfemur -2.42946 6.83826 29.4233
rtibia 28.2703
rfoot -8.08284 -7.5393
rtoes 4.41038
lfemur 7.99866 0.969257 -13.629
ltibia 29.2731
lfoot -11.9931 -5.76244
ltoes -27.9293
41
root -1.26767 17.7455 -7.14716 168.579 -7.97052 -175.574
lowerback 16.0948 -2.75451 1.13009
upperback 2.90162 -3.76562 1.73296
thorax -5.85963 -2.03101 1.99877
lowerneck 3.28899 -4.40638 -7.38069
upperneck 1.77262 -6.0927 7.41868
head 0.487728 -3.07401 3.72988
rclavicle 6.48395e-014 -1.13307e-014
rhumerus 240.167 196.381 195.985
rradius 45.3279
rwrist -66.7956
rhand -54.188 -5.07053
rfingers 7.12502
rthumb -26.6033 -33.2217
lclavicle 6.48395e-014 -1.13307e-014
lhumerus -307.807 -0.553739 308.904
lradius 39.0463
lwrist 54.6896
lhand -60.1633 20.4331
lfingers 7.12502
lthumb -32.3073 47.577
rfemur -2.16212 6.81837 29.451
rtibia 28.2504
rfoot -8.30046 -7.41048
rtoes 4.41448
lfemur 7.79089 0.934691 -13.7677
ltibia 28.6196
lfoot -12.2815 -5.51084
ltoes -28.3853
